<svg xmlns="http://www.w3.org/2000/svg" viewBox="0 0 984 984">
    <path class="no-fill" fill="none" d="M1 352V1h984v984H1V352M725.083 66.604c-1.895-1.202-3.747-2.48-5.698-3.585-1.744-.988-3.597-1.784-5.403-2.666-2.14-1.483-4.681-1.964-6.905-3.08-3.72-1.865-7.13-4.359-10.87-6.176-4.13-2.006-8.509-3.493-12.736-5.306-5.138-2.204-10.125-4.805-15.372-6.695-5.841-2.105-11.966-3.413-17.848-5.42-6.564-2.238-12.95-5.001-19.508-7.258-2.05-.706-4.41-.512-6.719-.739l.414-2.235c-3.791-.487-8.197.125-11.097-1.68-5.464-3.405-11.162-2.343-16.807-2.933-.922-.096-2.01-.351-2.653-.937-.777-.707-1.163-1.844-1.698-2.76-10.994-.605-21.862-1.317-32.893-3.66-12.744-2.704-26.245-2.1-39.43-2.398-14.825-.336-29.663-.077-44.496-.075-3.833 0-7.967-.938-11.447.172-14.8 4.72-30.39-.97-45.356 4.454-8.161 2.958-17.792.376-26.487 4.149-4.29 1.861-9.667 1.216-14.526 1.703.085.468.23 1.254.476 2.607l-15.112 1.173c-.999 1.202-1.494 2.409-2.29 2.657-5.074 1.586-10.26 2.821-15.32 4.447-4.17 1.34-8.128 3.38-12.338 4.536-6.538 1.795-12.883 3.79-18.988 6.936-7.837 4.037-16.112 7.235-24.253 10.666-5.72 2.41-12.476 3.476-16.996 7.26-3.525 2.951-6.671 3.024-9.673 3.233-1.193 5.83-5.915 3.083-7.906 3.94-.536 1.37-.75 2.874-1.216 2.956-3.362.591-5.51 3.05-8.168 4.756-3.08 1.977-6.676 3.165-9.716 5.193-5.536 3.693-10.752 7.864-16.243 11.63-5.778 3.964-11.843 7.514-17.555 11.565-5.33 3.78-10.466 7.856-15.495 12.033-4.295 3.568-8.321 7.462-12.46 11.218-4.91 4.454-9.79 8.941-14.726 13.366-4.427 3.969-9.096 7.687-13.316 11.862-3.604 3.565-6.615 7.72-10.082 11.433-4.086 4.376-8.672 8.314-12.5 12.893-3.535 4.229-6.349 9.06-9.494 13.615-1.271 1.842-2.431 3.789-3.904 5.456-2.58 2.92-5.61 5.467-7.998 8.525-3.056 3.914-4.916 9.12-8.637 12.07-5.453 4.323-5.844 11.338-10.48 16.009-2.852 2.873-4.04 7.346-6.207 10.96-3.183 5.306-7.015 10.267-9.76 15.779-3.097 6.216-6.61 12.28-9.755 18.428-1.93 3.774-3.818 8.057-5.624 11.87-3.419 7.217-8.346 14.013-9.266 22.345-.082.744-1.056 1.413-1.667 2.069-.59.63-1.607 1.093-1.816 1.81-1.784 6.1-3.425 12.243-5.112 18.371-.044.16-.088.353-.201.453-4.955 4.43-1.238 12.371-6.717 16.583.43 9.449-3.863 17.781-6.16 26.598-1.812 6.954-1.846 14.525-4.51 21.073-6.42 15.783-4.751 32.877-9.075 49.002-2.003 7.472-1.177 15.76-1.248 23.68-.15 16.665-.047 33.332-.044 49.998 0 1.5-.126 3.017.054 4.496a3654.75 3654.75 0 003.956 31.446c1.1 8.415 1.85 16.911 3.575 25.2 1.925 9.246 4.894 18.268 7.195 27.442 2.335 9.312 4.158 18.758 6.675 28.018 2.017 7.418 4.814 14.62 7.09 21.972.573 1.851-.184 5.149.794 5.669 5.26 2.799 3.101 7.63 3.726 11.161 1.147.412 2.717.6 2.802 1.063.863 4.69 2.298 8.982 4.972 13.11 2.647 4.087 4.028 8.974 6.191 13.4 3.212 6.57 6.614 13.05 9.954 19.558 1.829 3.563 3.464 7.254 5.602 10.624 3.25 5.125 7.12 9.867 10.221 15.073 1.916 3.217 1.961 8.804 4.503 10.115 4.458 2.298 2.743 5.934 4.384 8.414 1.125.344 2.182.87 2.763 1.722 2.014 2.957 3.622 6.214 5.818 9.017 6.239 7.965 12.703 15.752 19.055 23.628 4.548 5.638 8.718 11.624 13.66 16.89 8.52 9.078 17.425 17.802 26.328 26.51 6.51 6.37 13.16 12.608 19.978 18.643 3.354 2.969 7.326 5.226 10.844 8.024 2.843 2.26 5.344 4.946 8.14 7.27 4.45 3.698 8.847 7.503 13.589 10.797 4.983 3.463 8.871 8.681 15.316 9.904.619.118 1.238.425 1.77.776a2081.255 2081.255 0 0115.284 10.172c2.058 1.385 3.985 2.972 6.093 4.272 5.877 3.622 11.815 7.147 17.736 10.697.82.492 1.65.988 2.53 1.351 4.136 1.708 8.675 2.786 12.343 5.197 4.743 3.117 9.713 5.475 15.002 7.288 3.732 1.28 6.72 4.434 11.109 4.22.676-.034 1.443 1.797 2.237 2.859 2.533.531 6.656.185 8.25 2.027 2.143 2.479 4.147 2.287 6.604 2.485 1.58.127 3.88.102 4.56 1.062 2.792 3.95 6.814 2.339 10.352 3.046 1.756.35 3.29 1.809 5.64 3.185 3.447.854 7.964 1.962 12.475 3.094 18.661 4.684 37.309 9.423 55.988 14.036 5.506 1.36 11.051 2.966 16.662 3.41 10.049.796 20.162.763 30.245 1.174 1.204.049 2.435.595 3.56 1.114 1.019.47 1.906 1.756 2.857 1.761 19.824.106 39.649.08 59.593.08l-1.38-2.958c16.254-.194 31.982.196 47.445-3.91 12.038-3.197 24.515-4.728 36.585-7.825 14.849-3.81 29.469-8.512 44.214-12.737 2.183-.625 5.453.072 6.6-1.25 4.075-4.689 11.373-1.65 15.197-6.986.834-1.164 4.415-.358 6.747-.46l-.26-1.987c3.325-3.072 7.83-.297 11.19-4.584 2.405-3.07 8.01-3.654 12.213-5.28 1.338-.516 2.923-.544 4.111-1.265 3.489-2.117 6.574-5.665 10.291-6.475 7.156-1.559 11.747-7.32 18.328-9.59 2.613-.902 5.046-2.45 7.4-3.953 4.122-2.633 8.12-5.46 13.005-8.77-.023.024.629-1.174 1.628-1.668 3.286-1.624 7.669-2.145 9.847-4.644 3.863-4.434 9.315-6.305 13.487-10.292 7.053-6.74 15.487-12.02 23.173-18.123 4.176-3.317 8.022-7.051 11.985-10.632 1.628-1.47 3.13-3.08 4.765-4.54 6.13-5.481 12.652-10.577 18.348-16.474 7.272-7.528 13.788-15.78 20.815-23.554 4.89-5.41 10.438-10.257 15.043-15.886 3.586-4.383 6.12-9.618 9.226-14.406 1.238-1.909 2.753-3.64 4.155-5.44 2.25-2.89 4.72-5.636 6.72-8.689 3.265-4.982 5.662-10.635 9.441-15.155 6.497-7.769 11.54-16.27 15.573-25.464.188-.429.01-1.383.151-1.414 5.191-1.141 3.446-6.816 6.39-10.016 4.529-4.921 5.918-12.711 8.721-19.25 1.776-4.141 3.59-8.274 5.587-12.31 1.926-3.89 4.576-7.48 6.065-11.513 1.977-5.354 2.88-11.097 4.706-16.518 3.113-9.242 6.585-18.364 9.93-27.601l1.492 1.014c0-1.89-.224-3.59.038-5.21 1.309-8.11 4.959-15.739 4.982-24.121 4.841-3.315 2.527-8.327 2.958-12.666.439-4.408.665-8.837 1.052-13.251.065-.735.47-1.442.734-2.157.741-2.015 2.017-3.993 2.146-6.045.57-9.07.565-18.178 1.24-27.237.65-8.744 2.669-17.443 2.686-26.165.037-18.704 1.347-37.452-1.772-56.118-1.244-7.448-.059-15.312-1.393-22.732-1.516-8.426.496-17.024-3.339-25.497-3.31-7.314 1.115-16.554-4.134-24.278-1.608-2.365-.596-6.386-1.274-9.544-.642-2.992-2.218-5.784-2.853-8.777-.8-3.775-1.062-7.664-1.42-10.449-1.213-.758-2.352-1.061-2.563-1.68-.564-1.653-.534-3.506-1.085-5.165-2.3-6.934-4.64-13.856-7.137-20.721-1.45-3.99-4.755-7.965-4.503-11.766.409-6.161-3.79-10.045-5.454-15.024-2.917-8.73-9.501-16.06-10.978-25.57-.063-.408-.506-.748-.735-1.142-1.072-1.838-2.166-3.665-3.175-5.538-.33-.61-.303-1.42-.655-2.011-1.065-1.787-2.284-3.482-3.339-5.275-.382-.65-.23-1.834-.726-2.16-4.362-2.87-4.98-8.097-6.936-12.18-1.746-3.647-4.39-6.557-6.238-10.048-2.775-5.241-6.854-9.78-10.222-14.723-4.3-6.311-8.323-12.815-12.699-19.072-3.316-4.742-6.952-9.266-10.532-13.819-3.353-4.263-6.748-8.496-10.254-12.632-3.392-4-6.935-7.875-10.439-11.78-4.05-4.515-8.01-9.12-12.237-13.465-3.736-3.839-7.804-7.352-11.688-11.048-3.126-2.976-6.058-6.172-9.323-8.984-5.038-4.337-10.388-8.312-15.417-12.657-5.51-4.76-10.707-9.883-16.223-14.635-5.278-4.547-11.76-7.277-17.302-11.662-8.42-6.663-18.122-11.701-27.251-17.475-2.311-1.462-4.397-3.312-6.792-4.602-4.221-2.272-8.6-4.25-13.67-6.715z"></path>
    <path fill="#FAFBFB" d="M725.462 66.786c4.69 2.283 9.07 4.26 13.29 6.533 2.396 1.29 4.482 3.14 6.793 4.602 9.129 5.774 18.831 10.812 27.251 17.475 5.542 4.385 12.024 7.115 17.302 11.662 5.516 4.752 10.713 9.874 16.223 14.635 5.03 4.345 10.38 8.32 15.417 12.657 3.265 2.812 6.197 6.008 9.323 8.984 3.884 3.696 7.952 7.21 11.688 11.048 4.227 4.345 8.186 8.95 12.237 13.465 3.504 3.905 7.047 7.78 10.439 11.78 3.506 4.136 6.901 8.37 10.254 12.632 3.58 4.553 7.216 9.077 10.532 13.82 4.376 6.256 8.398 12.76 12.699 19.071 3.368 4.944 7.447 9.482 10.222 14.723 1.848 3.491 4.492 6.401 6.238 10.047 1.956 4.084 2.574 9.312 6.936 12.18.496.327.344 1.512.726 2.161 1.055 1.793 2.274 3.488 3.339 5.275.352.59.325 1.4.655 2.011 1.01 1.873 2.103 3.7 3.175 5.538.229.394.672.734.735 1.142 1.477 9.51 8.061 16.84 10.978 25.57 1.664 4.98 5.863 8.863 5.454 15.024-.252 3.801 3.052 7.776 4.503 11.766 2.496 6.865 4.838 13.787 7.137 20.721.55 1.66.521 3.512 1.085 5.165.21.619 1.35.922 2.563 1.68.358 2.785.62 6.674 1.42 10.449.635 2.993 2.211 5.785 2.853 8.777.678 3.158-.334 7.179 1.274 9.544 5.249 7.724.824 16.964 4.134 24.278 3.835 8.473 1.823 17.07 3.339 25.497 1.334 7.42.149 15.284 1.393 22.732 3.119 18.666 1.81 37.414 1.772 56.118-.017 8.722-2.037 17.421-2.687 26.165-.674 9.06-.67 18.168-1.24 27.237-.128 2.052-1.404 4.03-2.145 6.045-.263.715-.67 1.422-.734 2.157-.387 4.414-.613 8.843-1.052 13.25-.431 4.34 1.883 9.352-2.958 12.667-.023 8.382-3.673 16.011-4.982 24.122-.262 1.62-.038 3.318-.038 5.209l-1.492-1.014c-3.345 9.237-6.817 18.359-9.93 27.601-1.826 5.421-2.729 11.164-4.706 16.518-1.489 4.033-4.14 7.622-6.064 11.512-1.999 4.037-3.812 8.17-5.588 12.312-2.803 6.538-4.192 14.328-8.721 19.25-2.944 3.199-1.199 8.874-6.39 10.015-.142.031.037.985-.151 1.414-4.033 9.194-9.076 17.695-15.573 25.464-3.78 4.52-6.176 10.173-9.44 15.155-2 3.053-4.47 5.798-6.72 8.689-1.403 1.8-2.918 3.531-4.156 5.44-3.107 4.788-5.64 10.023-9.226 14.406-4.605 5.63-10.152 10.476-15.043 15.886-7.027 7.773-13.543 16.026-20.815 23.554-5.696 5.897-12.219 10.993-18.348 16.473-1.635 1.462-3.137 3.071-4.765 4.541-3.963 3.58-7.81 7.315-11.985 10.632-7.686 6.104-16.12 11.382-23.173 18.123-4.172 3.987-9.624 5.858-13.487 10.292-2.178 2.499-6.561 3.02-9.847 4.644-1 .494-1.65 1.692-1.628 1.667-4.884 3.311-8.883 6.138-13.005 8.77-2.354 1.505-4.787 3.052-7.4 3.954-6.58 2.27-11.172 8.031-18.328 9.59-3.717.81-6.802 4.358-10.29 6.475-1.189.72-2.774.749-4.112 1.266-4.203 1.625-9.808 2.21-12.213 5.28-3.36 4.286-7.865 1.511-11.19 4.583l.26 1.987c-2.332.102-5.913-.704-6.747.46-3.824 5.336-11.122 2.297-15.196 6.986-1.148 1.322-4.418.625-6.601 1.25-14.745 4.225-29.365 8.927-44.214 12.737-12.07 3.097-24.547 4.628-36.585 7.825-15.463 4.106-31.19 3.716-47.446 3.91l1.381 2.958c-19.944 0-39.77.026-59.593-.08-.95-.005-1.838-1.292-2.857-1.761-1.125-.519-2.356-1.065-3.56-1.114-10.083-.411-20.196-.378-30.245-1.174-5.61-.444-11.156-2.05-16.662-3.41-18.679-4.613-37.327-9.352-55.988-14.036-4.51-1.132-9.028-2.24-12.475-3.094-2.35-1.376-3.884-2.835-5.64-3.185-3.538-.707-7.56.904-10.353-3.046-.679-.96-2.98-.935-4.559-1.062-2.457-.198-4.46-.006-6.605-2.485-1.593-1.842-5.716-1.496-8.25-2.027-.793-1.062-1.56-2.893-2.236-2.86-4.389.215-7.377-2.94-11.11-4.22-5.288-1.812-10.258-4.17-15.001-7.287-3.668-2.41-8.207-3.489-12.343-5.197-.88-.363-1.71-.86-2.53-1.35-5.921-3.551-11.859-7.076-17.736-10.698-2.108-1.3-4.035-2.887-6.093-4.272-5.077-3.416-10.177-6.8-15.284-10.172-.532-.351-1.151-.658-1.77-.776-6.445-1.223-10.333-6.44-15.316-9.904-4.742-3.294-9.138-7.1-13.589-10.797-2.796-2.324-5.297-5.01-8.14-7.27-3.518-2.798-7.49-5.055-10.844-8.024-6.819-6.035-13.468-12.274-19.978-18.642-8.903-8.71-17.808-17.433-26.328-26.511-4.942-5.266-9.112-11.252-13.66-16.89-6.352-7.876-12.816-15.663-19.055-23.628-2.196-2.803-3.804-6.06-5.818-9.017-.58-.852-1.638-1.378-2.763-1.722-1.64-2.48.074-6.116-4.384-8.414-2.542-1.31-2.587-6.898-4.503-10.115-3.102-5.206-6.971-9.948-10.221-15.073-2.138-3.37-3.773-7.06-5.602-10.624-3.34-6.509-6.742-12.987-9.954-19.559-2.163-4.425-3.544-9.312-6.191-13.399-2.674-4.128-4.109-8.42-4.972-13.11-.085-.462-1.655-.651-2.802-1.063-.625-3.531 1.535-8.362-3.726-11.161-.978-.52-.221-3.818-.794-5.67-2.276-7.351-5.073-14.553-7.09-21.97-2.517-9.26-4.34-18.707-6.675-28.02-2.3-9.173-5.27-18.195-7.195-27.44-1.726-8.29-2.475-16.786-3.575-25.2a3654.75 3654.75 0 01-3.956-31.447c-.18-1.479-.054-2.996-.054-4.496-.003-16.666-.106-33.333.044-49.997.071-7.921-.755-16.209 1.248-23.68 4.324-16.126 2.655-33.22 9.075-49.003 2.664-6.548 2.698-14.119 4.51-21.073 2.297-8.817 6.59-17.15 6.16-26.598 5.48-4.212 1.762-12.153 6.717-16.583.113-.1.157-.294.201-.453 1.687-6.128 3.328-12.27 5.112-18.371.21-.717 1.227-1.18 1.816-1.81.611-.656 1.585-1.325 1.667-2.07.92-8.33 5.847-15.127 9.266-22.344 1.806-3.813 3.693-8.096 5.624-11.87 3.145-6.148 6.658-12.212 9.755-18.428 2.745-5.512 6.577-10.473 9.76-15.778 2.168-3.615 3.355-8.088 6.207-10.961 4.636-4.67 5.027-11.686 10.48-16.008 3.721-2.95 5.581-8.157 8.637-12.071 2.387-3.058 5.418-5.605 7.998-8.525 1.473-1.667 2.633-3.614 3.904-5.456 3.145-4.556 5.959-9.386 9.494-13.615 3.828-4.58 8.414-8.517 12.5-12.893 3.467-3.713 6.478-7.868 10.082-11.433 4.22-4.175 8.89-7.893 13.316-11.862 4.936-4.425 9.816-8.912 14.726-13.366 4.139-3.756 8.165-7.65 12.46-11.218 5.029-4.177 10.164-8.253 15.495-12.033 5.712-4.05 11.777-7.601 17.555-11.565 5.49-3.766 10.707-7.937 16.243-11.63 3.04-2.028 6.636-3.216 9.716-5.193 2.658-1.706 4.806-4.165 8.168-4.756.465-.082.68-1.585 1.216-2.956 1.991-.857 6.713 1.89 7.906-3.94 3.002-.21 6.148-.282 9.673-3.233 4.52-3.784 11.276-4.85 16.996-7.26 8.14-3.431 16.416-6.63 24.253-10.666 6.105-3.145 12.45-5.141 18.988-6.936 4.21-1.156 8.168-3.196 12.338-4.536 5.06-1.626 10.246-2.861 15.32-4.447.796-.248 1.291-1.455 2.29-2.657l15.112-1.173-.476-2.607c4.859-.487 10.236.158 14.526-1.703 8.695-3.773 18.326-1.19 26.487-4.149 14.966-5.424 30.556.266 45.356-4.454 3.48-1.11 7.614-.172 11.447-.172 14.833-.002 29.671-.261 44.496.075 13.185.298 26.686-.306 39.43 2.399 11.031 2.342 21.899 3.054 32.893 3.66.535.915.92 2.052 1.698 2.76.644.585 1.73.84 2.653.936 5.645.59 11.343-.472 16.807 2.932 2.9 1.806 7.306 1.194 11.097 1.681l-.414 2.235c2.31.227 4.67.033 6.72.739 6.558 2.257 12.943 5.02 19.507 7.259 5.882 2.006 12.007 3.314 17.848 5.419 5.247 1.89 10.234 4.491 15.372 6.695 4.227 1.813 8.606 3.3 12.736 5.306 3.74 1.817 7.15 4.311 10.87 6.177 2.224 1.115 4.765 1.596 6.905 3.08 1.806.88 3.659 1.677 5.403 2.665 1.95 1.105 3.803 2.383 6.077 3.767m-560.667 581.81c-1.65-3.982-3.199-8.01-4.971-11.938-4.67-10.348-8.651-20.44-.1-31.087 2.418-3.01 3.787-7.617 3.933-11.555.385-10.4-4.42-19.496-11.689-26.084-9.325-8.45-22.103-10.39-32.75-4.829-10.073 5.262-19.05 13.481-18.444 27.862.438 10.423 2.324 18.914 10.98 25.672 4.284 3.346 8.007 8.117 10.418 13.014 5.56 11.298 9.647 23.327 15.278 34.586 8.386 16.767 15.589 34.186 26.942 49.394 9.414 12.611 17.04 26.788 27.681 38.2 17.708 18.988 34.845 38.622 55.99 54.349 11.683 8.688 22.765 18.206 35.187 25.915 8.714 5.409 17.206 11.262 26.286 15.973 10.888 5.65 22.333 10.222 33.472 15.399 18.6 8.644 38.057 14.92 57.924 19.604 15.608 3.68 31.527 6.328 47.447 8.32 15.787 1.974 31.773 3.784 47.627 3.459 24.185-.497 48.429-1.864 72.308-6.48 9.095-1.758 18.296-3.124 27.247-5.45 25.132-6.531 49.549-15.027 72.954-26.49 23.036-11.284 45.354-23.66 65.559-39.537 12.269-9.641 24.724-19.14 36.175-29.7 9.716-8.961 18.159-19.312 27.083-29.122 20.574-22.617 38.192-47.3 51.875-74.703 8.686-17.395 18.039-34.48 23.546-53.304 4.7-16.07 10.54-31.848 14.481-48.094 5.769-23.775 7.76-48.139 8.537-72.586.763-24.01-1.518-47.837-4.074-71.65-.851-7.93-5.547-8.577-12.304-7.178-4.811.996-9.525 2.526-14.365 3.306-5.11.824-7.39 3.39-6.64 8.49.996 6.767.352 7.564-6.523 7.575-29.333.049-58.666.05-87.999.104-10.98.02-11.008.066-11.017-10.928-.018-21.333.022-42.667-.012-64-.01-5.712-.947-6.354-6.464-5.706-3.458.406-6.965.55-10.45.555-36.667.04-73.333-.052-110 .1-6.835.029-13.558.768-15.645-8.046-.069-.292-.416-.511-.61-.782-4.248-5.92-8.599-11.769-12.696-17.791-2.345-3.447-2.842-7.045.542-10.39 16.946-16.747 33.715-33.676 50.876-50.2 5.543-5.34 8.994-10.564 8.838-18.853-.541-28.823-.285-57.662-.318-86.495-.009-7.19.75-7.729 7.859-5.6 1.09.326 2.157.821 3.14 1.4 7.995 4.7 16.189 9.11 23.898 14.244 12.4 8.257 24.533 16.923 36.658 25.586 3.773 2.695 7.31 5.774 10.686 8.964 9.662 9.13 19.725 17.919 28.616 27.759 9.524 10.541 18.015 22.032 26.72 33.293 4.967 6.426 10.079 12.873 14.03 19.925 7.159 12.776 13.475 26.024 20.19 39.05 3.694 7.17 5.73 14.204 4.747 22.795-2.175 19.022 8.195 32.835 25.01 35.632 23.01 3.826 41.702-15.342 36.697-37.633-2.596-11.56-14.735-23.087-26.838-24.803-4.874-.69-7.777-2.648-9.471-7.309-1.643-4.518-4.068-8.749-6.087-13.135-7.968-17.317-19.51-32.438-29.455-48.547-13.606-22.036-32.891-39.108-49.05-58.88-3.066-3.751-7.933-5.983-11.757-9.17-9.175-7.65-17.782-16.062-27.43-23.045-13.698-9.912-27.646-19.672-42.372-27.915-15.049-8.425-30.942-15.48-46.887-22.124-13.446-5.603-27.4-10.058-41.31-14.453-9.328-2.948-18.875-5.416-28.494-7.174-11.91-2.176-23.966-3.645-36.01-4.96-12.55-1.37-25.145-2.78-37.749-3.128-23.656-.651-47.059 2.452-70.29 6.633-13.357 2.403-26.596 5.445-39.909 8.095-23.39 4.657-44.72 14.93-66.19 24.647-11.016 4.987-21.383 11.44-31.925 17.437-18.534 10.545-36.297 22.4-51.958 36.815-20.058 18.462-39.64 37.355-56.801 58.852-15.665 19.622-28.99 40.563-40.806 62.436-8.016 14.84-14.235 30.772-20.018 46.666-5.765 15.845-10.767 32.065-14.673 48.46-4.416 18.537-8.168 37.327-7.856 56.598.013.818-.304 1.636-.369 2.462-.771 9.778-2.068 19.554-2.122 29.337-.05 9.11 1.27 18.226 1.898 27.345.249 3.618 2.186 4.522 5.398 3.828 6.157-1.331 12.273-2.96 18.492-3.877 6.93-1.021 7.067-.74 6.818-7.687-1.078-30.028.67-59.787 6.959-89.28 5.137-24.093 11.158-47.87 21.128-70.461.758-1.717 3.672-3.524 5.592-3.533 45.166-.219 90.332-.158 135.498-.283 3.793-.01 5.591 1.272 5.576 5.028-.071 18.136-.046 36.274-.303 54.408-.05 3.552 1.44 4.311 4.425 4.286 17.988-.153 35.977-.219 53.965-.407 4.085-.043 5.474 1.74 5.486 5.761.049 16.154.72 32.314.436 48.459-.22 12.531.365 11.605-11.024 10.885-1.162-.074-2.333-.016-3.5-.015-24.97.011-49.939.031-74.909.03-6.804-.002-7.08.225-7.078 6.985.006 33 .077 66-.077 98.998-.012 2.573-.87 5.811-2.555 7.58-4.803 5.048-10.147 9.599-15.437 14.161a16148.28 16148.28 0 01-54.465 46.74c-7.397 6.323-14.893 12.53-23.41 19.685-4.812-9.5-8.995-17.76-13.452-26.744z"></path>
    <path fill="#65C2E2" d="M164.932 648.959c4.32 8.622 8.503 16.883 13.314 26.382 8.518-7.156 16.014-13.362 23.41-19.685a16148.28 16148.28 0 0054.466-46.74c5.29-4.562 10.634-9.113 15.437-14.16 1.684-1.77 2.543-5.008 2.555-7.58.154-33 .083-66 .077-99-.001-6.759.274-6.986 7.078-6.985 24.97.002 49.94-.018 74.91-.03 1.166 0 2.337-.058 3.499.016 11.389.72 10.803 1.646 11.024-10.885.285-16.145-.387-32.305-.436-48.459-.012-4.022-1.4-5.804-5.486-5.761-17.988.188-35.977.254-53.965.407-2.986.025-4.476-.734-4.425-4.286.257-18.134.232-36.272.303-54.408.015-3.756-1.783-5.038-5.576-5.028-45.166.125-90.332.064-135.498.283-1.92.009-4.834 1.816-5.592 3.533-9.97 22.592-15.991 46.368-21.128 70.46-6.29 29.494-8.037 59.253-6.96 89.28.25 6.949.113 6.667-6.817 7.688-6.22.917-12.335 2.546-18.492 3.877-3.212.694-5.15-.21-5.398-3.828-.628-9.12-1.949-18.234-1.898-27.345.054-9.783 1.351-19.56 2.122-29.337.065-.826.382-1.644.37-2.462-.313-19.27 3.439-38.06 7.855-56.597 3.906-16.396 8.908-32.616 14.673-48.46 5.783-15.895 12.002-31.826 20.018-46.667 11.816-21.873 25.14-42.814 40.806-62.436 17.162-21.497 36.743-40.39 56.801-58.852 15.661-14.416 33.424-26.27 51.958-36.815 10.542-5.998 20.909-12.45 31.925-17.437 21.47-9.717 42.8-19.99 66.19-24.647 13.313-2.65 26.552-5.692 39.908-8.095 23.232-4.181 46.635-7.284 70.291-6.633 12.604.348 25.199 1.758 37.75 3.128 12.043 1.315 24.1 2.784 36.009 4.96 9.619 1.758 19.166 4.226 28.495 7.174 13.909 4.395 27.863 8.85 41.31 14.453 15.944 6.645 31.837 13.7 46.886 22.124 14.726 8.243 28.674 18.003 42.371 27.915 9.649 6.983 18.256 15.395 27.431 23.044 3.824 3.188 8.691 5.42 11.757 9.17 16.159 19.773 35.444 36.845 49.05 58.88 9.946 16.11 21.487 31.231 29.455 48.548 2.019 4.386 4.444 8.617 6.087 13.135 1.694 4.661 4.597 6.619 9.47 7.31 12.104 1.715 24.243 13.243 26.839 24.802 5.005 22.29-13.687 41.46-36.697 37.633-16.815-2.797-27.185-16.61-25.01-35.632.983-8.591-1.053-15.625-4.748-22.794-6.714-13.027-13.03-26.275-20.19-39.051-3.95-7.052-9.062-13.499-14.03-19.925-8.704-11.26-17.195-22.752-26.72-33.293-8.89-9.84-18.953-18.63-28.615-27.76-3.375-3.189-6.913-6.268-10.686-8.963-12.125-8.663-24.257-17.329-36.658-25.586-7.71-5.134-15.903-9.543-23.898-14.245-.983-.578-2.05-1.073-3.14-1.4-7.109-2.128-7.868-1.588-7.86 5.601.034 28.833-.222 57.672.32 86.495.155 8.289-3.296 13.514-8.84 18.852-17.16 16.525-33.93 33.454-50.875 50.202-3.384 3.344-2.887 6.942-.542 10.389 4.097 6.022 8.448 11.872 12.696 17.791.194.27.541.49.61.782 2.087 8.814 8.81 8.075 15.646 8.046 36.666-.152 73.332-.06 109.999-.1 3.485-.004 6.992-.15 10.45-.555 5.517-.648 6.455-.006 6.464 5.706.034 21.333-.006 42.667.012 64 .009 10.994.037 10.948 11.017 10.928 29.333-.055 58.666-.055 88-.104 6.874-.01 7.518-.808 6.522-7.575-.75-5.1 1.53-7.666 6.64-8.49 4.84-.78 9.554-2.31 14.365-3.306 6.757-1.4 11.453-.751 12.304 7.178 2.556 23.813 4.837 47.64 4.074 71.65-.776 24.447-2.768 48.81-8.537 72.586-3.942 16.246-9.78 32.023-14.481 48.094-5.507 18.825-14.86 35.909-23.546 53.304-13.683 27.403-31.3 52.086-51.875 74.703-8.924 9.81-17.367 20.16-27.083 29.122-11.451 10.56-23.906 20.059-36.175 29.7-20.205 15.878-42.523 28.253-65.56 39.537-23.404 11.463-47.82 19.959-72.953 26.49-8.95 2.326-18.152 3.692-27.247 5.45-23.88 4.616-48.123 5.983-72.308 6.48-15.854.325-31.84-1.485-47.627-3.46-15.92-1.991-31.84-4.639-47.447-8.32-19.867-4.684-39.325-10.959-57.924-19.603-11.14-5.177-22.584-9.748-33.472-15.399-9.08-4.711-17.572-10.564-26.286-15.973-12.422-7.71-23.504-17.227-35.186-25.915-21.146-15.727-38.283-35.361-55.991-54.35-10.641-11.41-18.267-25.588-27.681-38.199-11.353-15.208-18.556-32.627-26.942-49.394-5.631-11.259-9.717-23.288-15.278-34.586-2.41-4.897-6.134-9.668-10.419-13.014-8.655-6.758-10.54-15.25-10.98-25.672-.605-14.38 8.372-22.6 18.444-27.862 10.648-5.562 23.426-3.622 32.751 4.83 7.269 6.587 12.074 15.684 11.689 26.083-.146 3.938-1.515 8.544-3.934 11.555-8.55 10.648-4.57 20.74.1 31.087 1.773 3.928 3.322 7.956 5.109 12.3m144.017-72.202c.348.412.696.824 1.614 1.576l58.183 57.844 1.438-.566c.227-2.375.673-4.753.648-7.125-.161-15.315-.318-30.631-.726-45.94-.11-4.079 1.084-5.521 5.324-5.515 48.82.076 97.638-.022 146.458-.053 7.538-.004 9.13 1.583 9.128 9.018-.006 24.326-.028 48.653-.08 72.979-.004 1.985-.005 4.044-.502 5.938-1.062 4.048.145 6.064 4.46 6.141 16.467.295 32.94 1.045 49.393.727 4.784-.093 10.719-1.91 14.063-5.1 18.561-17.706 36.55-36.016 54.55-54.3 2.217-2.251 4.697-5.56 4.747-8.42.41-23.486.28-46.98.293-70.473.002-2.946-1.265-4.634-4.506-4.664-17.648-.166-35.295-.56-52.942-.552-6.388.003-6.568.2-6.566-5.898.016-37.322.039-74.644-.064-111.966-.008-3.093-.087-6.684-1.577-9.183-5.067-8.501-10.837-16.58-16.228-24.893-3.501-5.398-6.99-10.82-10.149-16.42-2.481-4.397-5.414-7.115-10.94-7.083-27.491.157-54.984.026-82.475.07-1.58.003-3.16.662-5.47 1.29-.34 1.716-.966 3.43-.976 5.15-.084 14.152-.017 28.305-.09 42.457-.014 2.63-.648 5.257-.658 7.887-.022 5.563-3.496 6.353-7.976 6.384-4.763.033-9.523.435-15.161.782-5.008-.101-10.016-.202-15.246-.841l-3.924.708c-2.956-.05-5.913-.1-9.193-.801-8.367-2.594-11.779-.315-11.787 7.982-.025 24.594.048 49.19-.068 73.784-.022 4.605-.746 9.207-1.833 14.013-.71.076-1.422.152-2.744-.321-5.444.168-10.888.337-17.27.583-19.378-.025-38.755-.05-58.746-.61-3.15-.11-6.312-.421-9.444-.233-1.335.08-2.607 1.206-4.007 2.59-.151.722-.303 1.444-1.09 2.55-.24.422-.69.843-.69 1.266-.056 18.362-.122 36.725.027 55.085.01 1.174 1.726 2.334 2.715 3.523 0 0 .018.068.087.63M435.838 382l3.748.478c.178-.791.38-1.268.38-1.746.022-28.526.025-57.053.036-85.58.001-4.056-1.922-6.182-6.978-6.156-3.32.07-6.643.103-9.963.214-15.433.516-30.863 1.404-46.296 1.46-10.274.036-20.546-1.221-30.829-1.675-5.575-.245-6.776 1.015-6.79 6.63-.067 27.798-.087 55.596-.072 83.394.004 6.06.991 6.989 6.911 6.99 27.632.001 55.263-.076 82.894.06 3.327.016 5.404-.776 6.959-4.069M566.5 703.902c-9.664.007-19.329.004-28.993.027-5.458.013-8.075 3.05-7.52 8.348.482 4.614.904 9.252.997 13.886.171 8.529-1.205 9.821-9.756 9.815-48.658-.038-97.316-.129-145.974-.05-3.946.007-5.183-1.082-5.124-5.075.19-12.827.217-25.668-.22-38.485-.101-2.993-1.595-6.55-3.631-8.753-6.866-7.43-14.287-14.346-21.454-21.5-13.434-13.41-26.823-26.867-40.269-40.266-3.577-3.565-7.394-3.972-10.56-1.212-9.014 7.857-18.023 15.72-26.97 23.652-5.48 4.856-10.722 9.984-16.28 14.745-16.033 13.731-32.245 27.255-48.226 41.046-4.704 4.06-4.748 7.027-.926 12.024 4.837 6.325 9.625 12.709 14.816 18.74 29.327 34.071 62.963 63.067 102.116 85.357 20.716 11.793 42.695 20.956 65.279 28.419 19.37 6.4 39.191 10.99 59.487 14.12 16.405 2.528 32.712 3.072 49.164 3.571 29.872.906 59.328-1.916 88.265-9.296 12.208-3.114 24.359-6.687 36.176-11.03 14.624-5.372 29.12-11.236 43.208-17.874 11.537-5.436 22.665-11.884 33.474-18.679 10.942-6.877 21.379-14.583 31.828-22.211 6.392-4.666 12.384-9.879 18.57-14.829 2.776-2.222 3.117-4.735.559-7.21-6.1-5.898-12.164-11.852-18.529-17.458-17.444-15.364-35.157-30.425-52.517-45.882-8.562-7.623-16.552-15.885-24.856-23.8-3.874-3.693-8.262-4.346-10.969-1.365a1259.971 1259.971 0 00-23.097 26.14c-2.739 3.19-5.482 5.347-10.077 5.24-12.325-.287-24.66-.135-37.991-.155m-128-445.842c5.997-.02 11.993-.03 17.99-.062 9.898-.052 10.692.78 10.655 10.919-.058 15.658-.048 31.316-.137 46.974-.022 3.77.532 6.318 5.4 6.275 26.15-.233 52.303-.21 78.456-.271 5.667-.013 10.967-1.271 15.144-5.303 16.39-15.818 32.748-31.67 49.014-47.616 6.168-6.047 11.014-12.718 10.956-22.109-.182-29.316-.122-58.635-.022-87.952.013-3.81-1.465-5.928-5.034-6.889-18.717-5.039-37.375-10.31-56.169-15.042-5.738-1.445-11.847-1.409-17.782-2.09-10.852-1.246-21.678-3.302-32.556-3.622-22.42-.66-44.871-1.057-67.08 3.61-11.838 2.487-23.921 3.8-35.79 6.168-3.71.74-8.494 1.467-8.491 7.29.014 34.981.006 69.963-.092 104.944-.01 3.704 1.413 4.936 5.055 4.867 9.825-.188 19.655-.08 30.483-.091m424.356 247.424c-.002-6.33-.039-12.66.006-18.989.034-4.708-1.82-6.619-6.91-6.584-32.311.222-64.625.125-96.937.137-5.916.002-6.929.878-6.972 6.971-.081 11.492-.01 22.985.05 34.478.04 7.314.083 7.319-7.473 7.324-16.296.012-32.59-.002-48.886.034-7.525.017-7.636.093-7.647 7.467-.036 24.484.123 48.97-.18 73.45-.039 3.1-1.72 6.745-3.788 9.148-5.961 6.926-12.73 13.154-18.748 20.036-3.775 4.317-3.187 6.933 1.012 10.622 2.626 2.307 5.204 4.67 7.881 6.916 13.473 11.307 27.222 22.3 40.397 33.942 17.187 15.187 33.925 30.881 50.856 46.357.245.225.484.458.741.67 2.512 2.065 4.982 1.807 7.085-.48 3.373-3.67 6.848-7.293 9.813-11.282 15.086-20.296 30.087-40.668 40.524-63.91 6.387-14.225 13.052-28.346 18.822-42.821 3.605-9.045 6.2-18.559 8.496-28.045 3.66-15.12 7.504-30.274 9.735-45.637 1.854-12.77 1.499-25.863 2.123-39.804M208.396 272.88c-8.942 13.386-17.95 26.73-26.763 40.201-1.522 2.327-2.213 5.197-3.731 8.898h6.34c38.813.003 77.626-.082 116.438.116 4.99.025 6.341-1.727 6.287-6.364-.19-16.323-.104-32.649-.125-48.973-.01-7.559 1.205-8.759 8.612-8.737 16.658.05 33.316.004 49.973.146 3.278.028 4.848-.758 4.838-4.414-.09-31.316-.024-62.633-.063-93.95-.005-4.227-2.274-5.587-6.206-3.804-2.555 1.16-4.922 2.736-7.48 3.891-8.3 3.752-16.952 6.843-24.905 11.214-11.16 6.134-21.997 12.912-32.638 19.922-11.888 7.833-24.2 15.316-34.885 24.61-14.771 12.849-28.312 27.13-42.13 41.046-4.778 4.813-8.806 10.371-13.562 16.198M699.5 497.157c3.997.007 7.994-.002 11.99.024 8.887.06 10.405-1.333 10.338-10.324-.075-10.282-.494-20.562-.556-30.845-.098-16.318-.047-32.638-.002-48.958.01-3.463-.25-6.263-4.91-6.243-28.475.125-56.951.123-85.427.164-3.912.006-5.813 2.013-5.813 5.88.002 27.477-.06 54.955.067 82.431.027 5.908 2.455 7.901 8.368 7.9 21.648-.004 43.297-.019 65.945-.03M498.114 634.5c-.01-6.999-.18-14.002.035-20.994.12-3.903-1.47-5.468-5.226-5.466-28.494.019-56.988.022-85.483-.047-3-.007-4.306 1.325-4.353 4.138-.05 2.999-.017 5.999-.02 8.998-.02 25.828-.063 51.656-.043 77.484.005 5.993 1.502 7.377 7.468 7.172 3.653-.125 7.301-.577 10.952-.585 23.495-.053 46.991-.14 70.484.073 4.834.044 6.365-1.503 6.318-6.287-.21-21.16-.117-42.324-.132-64.486z"></path>
    <path fill="#FAFBFB" d="M567 703.9c12.831.022 25.166-.13 37.491.157 4.595.107 7.338-2.05 10.077-5.24a1259.971 1259.971 0 0123.097-26.14c2.707-2.981 7.095-2.328 10.97 1.365 8.303 7.915 16.293 16.177 24.855 23.8 17.36 15.457 35.073 30.518 52.517 45.882 6.365 5.606 12.428 11.56 18.529 17.459 2.558 2.474 2.217 4.987-.56 7.209-6.185 4.95-12.177 10.163-18.569 14.829-10.45 7.628-20.886 15.334-31.828 22.211-10.81 6.795-21.937 13.243-33.474 18.679-14.087 6.638-28.584 12.502-43.208 17.875-11.817 4.342-23.968 7.915-36.176 11.029-28.937 7.38-58.393 10.202-88.265 9.296-16.452-.499-32.76-1.043-49.164-3.572-20.296-3.13-40.116-7.718-59.487-14.12-22.584-7.462-44.563-16.625-65.279-28.418-39.153-22.29-72.789-51.286-102.116-85.358-5.19-6.03-9.979-12.414-14.816-18.739-3.822-4.997-3.778-7.964.926-12.024 15.981-13.79 32.193-27.315 48.226-41.046 5.558-4.761 10.8-9.889 16.28-14.745 8.947-7.932 17.956-15.795 26.97-23.652 3.166-2.76 6.983-2.353 10.56 1.212 13.446 13.399 26.835 26.856 40.27 40.266 7.166 7.154 14.587 14.07 21.453 21.5 2.036 2.204 3.53 5.76 3.632 8.753.436 12.817.408 25.658.22 38.485-.06 3.993 1.177 5.082 5.123 5.076 48.658-.08 97.316.011 145.974.049 8.55.006 9.927-1.286 9.756-9.815-.093-4.634-.515-9.272-.997-13.886-.555-5.298 2.062-8.335 7.52-8.348 9.664-.023 19.329-.02 29.493-.028z"></path>
    <path fill="#FAFBFB" d="M414.123 416.565c2.956.05 5.913.1 9.704.215 1.66-.035 2.485-.135 3.31-.236 5.009.102 10.017.203 15.733.572 6.16.446 11.63.982 17.056.7 5.263-.273 7.964-3.164 7.963-7.64-.003-18.754-.084-37.508-.136-56.262 1.58-.354 3.16-1.013 4.74-1.015 27.491-.045 54.984.086 82.475-.071 5.526-.032 8.459 2.686 10.94 7.083 3.16 5.6 6.648 11.022 10.149 16.42 5.391 8.312 11.161 16.392 16.228 24.893 1.49 2.5 1.569 6.09 1.577 9.183.103 37.322.08 74.644.064 111.966-.002 6.099.178 5.901 6.566 5.898 17.647-.008 35.294.386 52.942.552 3.241.03 4.508 1.718 4.506 4.664-.012 23.492.117 46.987-.293 70.473-.05 2.86-2.53 6.169-4.747 8.42-18 18.284-35.989 36.594-54.55 54.3-3.344 3.19-9.279 5.007-14.063 5.1-16.453.318-32.926-.432-49.392-.727-4.316-.077-5.523-2.093-4.46-6.14.496-1.895.497-3.954.5-5.94.053-24.325.075-48.652.08-72.978.003-7.435-1.59-9.022-9.127-9.018-48.82.031-97.639.13-146.458.053-4.24-.006-5.433 1.436-5.324 5.515.408 15.309.565 30.625.726 45.94.025 2.372-.42 4.75-.648 7.125l-1.438.566c-19.394-19.281-38.789-38.563-58.487-58.304-.663-.865-1.02-1.272-1.379-1.678 0 0-.018-.068-.002-.513-.32-8.677-.777-16.906-.963-25.141-.262-11.555-.323-23.115-.47-34.672.152-.722.304-1.444.968-2.547 4.859-.734 9.205-1.087 13.551-1.44 19.378.024 38.755.049 58.895.324 6.215.072 11.667-.106 17.119-.284.711-.076 1.422-.152 2.845-.315 1.489-2.66 2.924-5.227 2.941-7.805.167-25.107.098-50.215.093-75.323-.002-10.665-.006-10.665 10.266-11.913z"></path>
    <path fill="#F9FBFB" d="M438 258.06c-10.328.01-20.158-.097-29.983.09-3.642.07-5.065-1.162-5.055-4.866.098-34.981.106-69.963.092-104.944-.003-5.823 4.78-6.55 8.491-7.29 11.869-2.369 23.952-3.68 35.79-6.168 22.209-4.667 44.66-4.27 67.08-3.61 10.878.32 21.704 2.376 32.556 3.622 5.935.681 12.044.645 17.782 2.09 18.794 4.731 37.452 10.003 56.169 15.042 3.57.961 5.047 3.078 5.034 6.889-.1 29.317-.16 58.636.022 87.952.058 9.391-4.788 16.062-10.956 22.11-16.266 15.945-32.624 31.797-49.014 47.615-4.177 4.032-9.477 5.29-15.144 5.303-26.153.06-52.306.038-78.457.27-4.867.044-5.42-2.504-5.4-6.274.09-15.658.08-31.316.138-46.974.037-10.14-.757-10.971-10.655-10.919-5.997.032-11.993.042-18.49.062z"></path>
    <path fill="#FAFBFB" d="M862.856 505.98c-.624 13.445-.269 26.537-2.123 39.308-2.231 15.363-6.076 30.517-9.735 45.637-2.295 9.486-4.89 19-8.496 28.045-5.77 14.475-12.435 28.596-18.822 42.821-10.437 23.242-25.438 43.614-40.524 63.91-2.965 3.989-6.44 7.612-9.813 11.281-2.103 2.288-4.573 2.546-7.085.48-.257-.21-.496-.444-.741-.669-16.931-15.476-33.67-31.17-50.856-46.357-13.175-11.643-26.924-22.635-40.397-33.942-2.677-2.246-5.255-4.609-7.88-6.916-4.2-3.69-4.788-6.305-1.013-10.622 6.018-6.882 12.787-13.11 18.748-20.036 2.069-2.403 3.749-6.048 3.787-9.148.304-24.48.145-48.966.18-73.45.012-7.374.123-7.45 7.648-7.467 16.295-.036 32.59-.022 48.886-.034 7.556-.005 7.513-.01 7.474-7.324-.061-11.493-.132-22.986-.051-34.478.043-6.093 1.056-6.97 6.972-6.971 32.312-.012 64.626.085 96.937-.137 5.09-.035 6.944 1.876 6.91 6.584-.045 6.33-.008 12.66-.006 19.485z"></path>
    <path fill="#F9FBFB" d="M208.589 272.576c4.563-5.522 8.591-11.08 13.37-15.893 13.817-13.917 27.358-28.197 42.129-41.046 10.685-9.294 22.997-16.777 34.885-24.61 10.64-7.01 21.478-13.788 32.638-19.922 7.953-4.37 16.606-7.462 24.906-11.214 2.557-1.155 4.924-2.731 7.48-3.89 3.931-1.784 6.2-.424 6.205 3.803.04 31.317-.027 62.634.063 93.95.01 3.656-1.56 4.442-4.838 4.414-16.657-.142-33.315-.096-49.973-.146-7.407-.022-8.621 1.178-8.612 8.737.02 16.324-.065 32.65.125 48.973.054 4.637-1.298 6.39-6.287 6.364-38.812-.198-77.625-.113-116.438-.116h-6.34c1.518-3.7 2.209-6.571 3.73-8.898 8.813-13.471 17.822-26.815 26.957-40.506z"></path>
    <path fill="#FAFBFB" d="M699 497.157c-22.149.01-43.798.025-65.446.029-5.913.001-8.34-1.992-8.368-7.9-.127-27.476-.065-54.954-.067-82.43 0-3.868 1.9-5.875 5.813-5.88 28.476-.042 56.952-.04 85.427-.165 4.66-.02 4.92 2.78 4.91 6.243-.045 16.32-.096 32.64.002 48.958.062 10.283.48 20.563.556 30.845.067 8.991-1.451 10.384-10.337 10.324-3.997-.026-7.994-.017-12.49-.024z"></path>
    <path fill="#F8FAFB" d="M435.078 381.99c-.795 3.303-2.872 4.095-6.199 4.079-27.63-.136-55.262-.059-82.894-.06-5.92-.001-6.907-.93-6.91-6.99-.016-27.798.004-55.596.072-83.394.013-5.615 1.214-6.875 6.79-6.63 10.282.454 20.554 1.711 30.828 1.674 15.433-.055 30.863-.943 46.296-1.46 3.32-.11 6.642-.144 10.47.107.782 1.11 1.056 1.901 1.3 2.943.017.412.063.574.065 1.204.031 29.82.107 59.174.182 88.527z"></path>
    <path fill="#F9FBFB" d="M498.113 635c.016 21.662-.078 42.826.133 63.986.047 4.784-1.484 6.331-6.318 6.287-23.493-.214-46.989-.126-70.484-.073-3.651.008-7.299.46-10.952.585-5.966.205-7.463-1.179-7.468-7.172-.02-25.828.023-51.656.044-77.484.002-3-.03-6 .02-8.998.046-2.813 1.353-4.145 4.352-4.138 28.495.07 56.989.066 85.483.047 3.755-.002 5.345 1.563 5.226 5.466-.215 6.992-.045 13.995-.036 21.494z"></path>
    <path fill="#50B8DE" d="M435.458 381.995c-.455-29.358-.53-58.711-.38-88.62.078-.825-.07-1.096-.216-1.367-.275-.79-.549-1.582-.871-2.683 4.09-.355 6.012 1.771 6.01 5.827-.01 28.527-.013 57.054-.034 85.58 0 .478-.203.955-.381 1.746-1.268-.162-2.508-.32-4.128-.483z"></path>
    <path fill="#95CDE3" d="M413.96 416.24c-10.109 1.573-10.105 1.573-10.103 12.238.005 25.108.074 50.216-.093 75.323-.017 2.578-1.452 5.145-2.597 7.704.031-4.618.755-9.22.777-13.825.116-24.594.043-49.19.068-73.784.008-8.297 3.42-10.576 11.949-7.657zM467.387 354.05c.418 18.618.499 37.372.502 56.125 0 4.477-2.7 7.368-7.963 7.641-5.427.282-10.896-.254-16.617-.753 4.491-.562 9.251-.964 14.014-.997 4.48-.03 7.954-.821 7.976-6.384.01-2.63.644-5.257.657-7.887.074-14.152.007-28.305.09-42.458.011-1.718.636-3.433 1.341-5.287zM307.128 516.06c.464 11.365.525 22.925.787 34.48.186 8.235.644 16.464.93 25.13-.972-.733-2.688-1.893-2.698-3.067-.15-18.36-.083-36.723-.027-55.085 0-.423.45-.844 1.008-1.458zM397.672 511.647c-5.146.452-10.598.63-16.344.52 5.151-.458 10.595-.627 16.344-.52zM321.658 511.613c-4.04.62-8.386.974-13.195 1.342.837-.637 2.109-1.763 3.444-1.843 3.132-.188 6.294.124 9.75.5zM427.027 416.275c-.715.37-1.54.47-2.764.427.618-.327 1.636-.511 2.764-.427zM308.915 576.475c.323.125.68.532 1.058 1.228-.328-.123-.676-.535-1.058-1.228z"></path>
    <path fill="#65C2E2" d="M434.832 292.259c.177.02.324.291.29.65-.228-.076-.274-.238-.29-.65z"></path>
</svg>